<?xml version="1.0" encoding="UTF-8"?><svg id="a" xmlns="http://www.w3.org/2000/svg" xmlns:xlink="http://www.w3.org/1999/xlink" viewBox="0 0 1000 1000"><defs><linearGradient id="b" x1="343.589" y1="721.103" x2="496.732" y2="772.151" gradientUnits="userSpaceOnUse"><stop offset="0" stop-color="#201160"/><stop offset=".245" stop-color="#2604a3"/><stop offset=".602" stop-color="#7123f2"/><stop offset=".854" stop-color="#832af8"/><stop offset="1" stop-color="#7d1fea"/></linearGradient><linearGradient id="c" x1="265.237" y1="823.876" x2="640.082" y2="313.935" gradientUnits="userSpaceOnUse"><stop offset=".041" stop-color="#430dd3"/><stop offset=".464" stop-color="#8622f0"/><stop offset=".774" stop-color="#b02cf2"/><stop offset="1" stop-color="#ef64fb"/></linearGradient><linearGradient id="d" x1="445.116" y1="658.961" x2="721.664" y2="583.796" gradientUnits="userSpaceOnUse"><stop offset="0" stop-color="#9929f5"/><stop offset=".376" stop-color="#7021ef"/><stop offset=".548" stop-color="#4f16bf"/><stop offset=".781" stop-color="#200679"/><stop offset=".95" stop-color="#1b1355"/></linearGradient><linearGradient id="e" x1="274.114" y1="810.787" x2="408.824" y2="344.268" gradientUnits="userSpaceOnUse"><stop offset="0" stop-color="#400dd2"/><stop offset=".594" stop-color="#6813e6"/><stop offset=".665" stop-color="#6512e2"/><stop offset=".732" stop-color="#5f11d6"/><stop offset=".797" stop-color="#530ec3"/><stop offset=".861" stop-color="#440ba9"/><stop offset=".923" stop-color="#300787"/><stop offset=".979" stop-color="#1a0362"/></linearGradient></defs><path d="M484.903,763.562c-.333,1.466-1.155,2.776-2.354,3.887-1.133,1.044-2.621,1.932-4.376,2.621l-.489.2-99.014,39.157-1.111.444c-8.995,3.598-18.79,6.685-29.185,9.04-26.231,5.952-51.084,6.263-69.785,1.91,5.952.955,12.06,1.488,18.279,1.488,3.798,0,7.574-.2,11.283-.577l26.808-90.419,36.27-122.38c.089.067.178.155.267.222-2.71,10.483,1.533,24.276,11.35,36.492l.089.089c1.644,2.066,3.487,4.109,5.486,6.063l.022.022,21.789,24.032,70.896,78.203.6.666c2.643,2.887,3.843,5.975,3.176,8.84Z" fill="url(#b)"/><path d="M818.854,552.651c0,27.674-9.217,53.172-24.72,73.406-10.95,14.326-25.076,26.031-41.267,34.004l-15.436,6.263-.067.022-210.045,85.111c.155-.067.289-.133.444-.222l125.911-54.371.222-.089c2.266-.866,4.531-1.799,6.819-2.799,1.777-.777,3.509-1.577,5.219-2.399,12.416-5.93,23.077-12.882,30.939-19.901h.022c3.287-2.932,6.064-5.841,8.307-8.706,0,0,.022,0,.022-.022,7.663-6.93,13.793-15.236,18.035-24.876,10.572-24.01,7.13-51.395-6.93-76.093l-74.76-61.567-8.729-7.174-20.123-16.591-53.772-44.265-53.283-43.888-8.107-6.663-18.679-15.392-22.544-18.568c-12.971-12.66-28.207-21.322-44.265-24.743-9.506-2.021-19.301-2.199-29.074-.244-25.786,5.108-46.153,23.965-57.636,49.796-3.887,8.729-6.774,18.257-8.507,28.318l-48.508,183.792-53.372,202.138c-20.9-21.833-33.827-51.95-33.827-85.2,0-13.482,2.132-26.43,6.041-38.535,1.466-4.553,3.198-8.973,5.153-13.26l109.387-377.623.022-.044c.933-4.864,2.177-9.595,3.665-14.237,15.459-47.753,58.858-82.157,109.986-82.157,23.743,0,45.82,7.418,64.21,20.167,7.885,5.442,15.081,11.883,21.455,19.145l273.189,243.694.044.044c27.119,21.811,44.554,55.704,44.554,93.728Z" fill="url(#c)"/><path d="M723.26,638.219c-4.242,9.658-10.126,18.088-17.789,25.031.246.107,0,0,0,0-2.243,2.871-5.288,5.701-8.575,8.638h-.022c-7.863,7.032-18.524,13.997-30.94,19.939l-12.039,5.207-.222.089-125.916,54.476-1.955.846,1.288-.512c-3.798,1.736-7.419,2.181-10.661,1.068-1.577-.534-2.998-1.424-4.265-2.648l-1.955-2.248-.044-.067-69.233-80.111-5.908-6.854-.311-.356c-4.065-4.629-5.908-9.28-4.909-13.53.822-3.471,3.421-6.342,7.463-8.545l2.199-1.09,8.973-4.451,53.196-26.392,84.847-42.081v-.022c.187-.182.765-.381.725-.423,17.699-9.569,27.194-16.088,35.657-30.353,3.665-6.142,6.464-12.996,8.196-20.384,1.266-5.43.986-15.525,1.009-20.844,2.491,1.475,8.86,7.38,9.497,7.692l74.763,61.686c22.161,27.811,17.503,52.184,6.93,76.239Z" fill="url(#d)"/><path d="M478.878,366.317c-1.244-.267-2.488-.444-3.776-.533-1.244-.089-2.51-.111-3.731-.044-18.368.8-34.759,17.768-41.534,41.645l-.289.999-2.354,8.173h-.022l-36.647,126.755-18.99,65.654-36.27,122.38-26.22,92.46c-3.709.378-8.264-.006-12.049-.329-9.491-.808-12.809-1.832-18.101-2.624-.111-.022-.222-.044-.333-.067-24.676-4.131-46.731-16.369-63.589-33.982l53.372-202.138,48.508-183.792c1.732-10.061,4.62-19.59,8.507-28.318,11.483-25.831,31.85-44.687,57.636-49.796,9.773-1.955,19.568-1.777,29.074.244,16.058,3.42,31.295,12.083,44.265,24.743l22.544,18.568Z" fill="url(#e)"/></svg>