<?xml version="1.0" encoding="UTF-8"?><svg id="c" xmlns="http://www.w3.org/2000/svg" xmlns:xlink="http://www.w3.org/1999/xlink" viewBox="0 0 1147.571 471.506"><defs><linearGradient id="d" x1="118.182" y1="396.672" x2="229.599" y2="433.811" gradientUnits="userSpaceOnUse"><stop offset="0" stop-color="#201160"/><stop offset=".245" stop-color="#2604a3"/><stop offset=".602" stop-color="#7123f2"/><stop offset=".854" stop-color="#832af8"/><stop offset="1" stop-color="#7d1fea"/></linearGradient><linearGradient id="e" x1="61.179" y1="471.443" x2="333.89" y2="100.445" gradientUnits="userSpaceOnUse"><stop offset=".041" stop-color="#430dd3"/><stop offset=".464" stop-color="#8622f0"/><stop offset=".774" stop-color="#b02cf2"/><stop offset="1" stop-color="#ef64fb"/></linearGradient><linearGradient id="f" x1="192.046" y1="351.462" x2="393.243" y2="296.777" gradientUnits="userSpaceOnUse"><stop offset="0" stop-color="#9929f5"/><stop offset=".376" stop-color="#7021ef"/><stop offset=".548" stop-color="#4f16bf"/><stop offset=".781" stop-color="#200679"/><stop offset=".95" stop-color="#1b1355"/></linearGradient><linearGradient id="g" x1="67.637" y1="461.92" x2="165.642" y2="122.513" gradientUnits="userSpaceOnUse"><stop offset="0" stop-color="#400dd2"/><stop offset=".594" stop-color="#6813e6"/><stop offset=".665" stop-color="#6512e2"/><stop offset=".732" stop-color="#5f11d6"/><stop offset=".797" stop-color="#530ec3"/><stop offset=".861" stop-color="#440ba9"/><stop offset=".923" stop-color="#300787"/><stop offset=".979" stop-color="#1a0362"/></linearGradient><linearGradient id="h" x1="673.138" y1="276.164" x2="694.67" y2="56.535" gradientUnits="userSpaceOnUse"><stop offset="0" stop-color="#cfcfcf"/><stop offset="1" stop-color="#fff"/></linearGradient><linearGradient id="i" x1="824.953" y1="287.421" x2="846.333" y2="69.353" xlink:href="#h"/><linearGradient id="j" x1="1004.829" y1="303.051" x2="1026.191" y2="85.166" gradientUnits="userSpaceOnUse"><stop offset="0" stop-color="#cfcfcf"/><stop offset=".268" stop-color="#d4d4d4"/><stop offset=".612" stop-color="#e4e4e4"/><stop offset=".996" stop-color="#fefefe"/><stop offset="1" stop-color="#fff"/></linearGradient><linearGradient id="k" x1="630.416" y1="404.41" x2="630.416" y2="315.065" xlink:href="#e"/><linearGradient id="l" x1="833.78" y1="404.41" x2="833.78" y2="315.065" xlink:href="#e"/><linearGradient id="m" x1="1028.732" y1="404.41" x2="1028.732" y2="315.065" xlink:href="#e"/></defs><path d="M220.993,427.562c-.242,1.066-.84,2.02-1.713,2.828-.824.759-1.907,1.406-3.183,1.907l-.355.145-72.036,28.488-.808.323c-6.544,2.618-13.67,4.864-21.233,6.577-19.084,4.331-37.165,4.557-50.771,1.39,4.331.695,8.774,1.083,13.299,1.083,2.763,0,5.51-.145,8.209-.42l19.504-65.783,26.387-89.035c.065.048.129.113.194.162-1.971,7.627,1.115,17.662,8.257,26.549l.065.065c1.196,1.503,2.537,2.989,3.991,4.411l.016.016,15.852,17.484,51.579,56.895.436.485c1.923,2.101,2.796,4.347,2.311,6.431Z" fill="url(#d)"/><path d="M463.952,274.118c0,20.134-6.706,38.684-17.985,53.405-7.966,10.422-18.243,18.938-30.023,24.739l-11.23,4.557-.048.016-152.814,61.921c.113-.048.21-.097.323-.162l91.604-39.557.162-.065c1.648-.63,3.296-1.309,4.961-2.036,1.293-.566,2.553-1.147,3.797-1.745,9.033-4.314,16.789-9.372,22.509-14.478h.016c2.392-2.133,4.411-4.25,6.043-6.334,0,0,.016,0,.016-.016,5.575-5.042,10.035-11.085,13.121-18.098,7.692-17.468,5.187-37.392-5.042-55.36l-54.391-44.792-6.35-5.219-14.64-12.071-39.121-32.205-38.765-31.93-5.898-4.848-13.59-11.198-16.401-13.509c-9.437-9.211-20.522-15.513-32.205-18.001-6.916-1.471-14.042-1.6-21.152-.178-18.76,3.717-33.578,17.435-41.932,36.228-2.828,6.35-4.929,13.283-6.189,20.603l-35.291,133.714-38.83,147.061c-15.206-15.884-24.61-37.796-24.61-61.985,0-9.808,1.551-19.229,4.395-28.036,1.066-3.313,2.327-6.528,3.749-9.647L87.726,70.162l.016-.032c.679-3.539,1.584-6.981,2.666-10.358C101.655,25.03,133.229,0,170.427,0c17.274,0,33.336,5.397,46.715,14.672,5.736,3.959,10.972,8.645,15.609,13.929l198.754,177.295.032.032c19.73,15.868,32.415,40.526,32.415,68.19Z" fill="url(#e)"/><path d="M394.405,336.371c-3.086,7.026-7.367,13.16-12.942,18.211.179.078,0,0,0,0-1.632,2.088-3.847,4.147-6.239,6.284h-.016c-5.72,5.116-13.477,10.183-22.51,14.506l-8.758,3.788-.162.065-91.608,39.633-1.422.615.937-.372c-2.763,1.263-5.397,1.587-7.757.777-1.147-.389-2.181-1.036-3.103-1.927l-1.422-1.635-.032-.049-50.369-58.284-4.298-4.986-.226-.259c-2.957-3.368-4.298-6.751-3.571-9.843.598-2.526,2.489-4.614,5.43-6.217l1.6-.793,6.528-3.238,38.702-19.201,61.729-30.615v-.016c.136-.133.557-.277.528-.308,12.877-6.962,19.785-11.705,25.942-22.083,2.666-4.468,4.702-9.455,5.963-14.83.921-3.95.718-11.295.734-15.164,1.812,1.073,6.446,5.369,6.91,5.596l54.393,44.878c16.123,20.233,12.734,37.965,5.042,55.467Z" fill="url(#f)"/><path d="M216.609,138.554c-.905-.194-1.81-.323-2.747-.388-.905-.065-1.826-.081-2.715-.032-13.363.582-25.289,12.927-30.217,30.298l-.21.727-1.713,5.946h-.016l-26.662,92.218-13.816,47.765-26.387,89.035-19.076,67.268c-2.698.275-6.013-.005-8.766-.239-6.905-.588-9.319-1.333-13.169-1.909-.081-.016-.162-.032-.242-.048-17.952-3.006-33.998-11.909-46.263-24.723l38.83-147.061,35.291-133.714c1.26-7.32,3.361-14.252,6.189-20.603,8.354-18.793,23.172-32.512,41.932-36.228,7.11-1.422,14.236-1.293,21.152.178,11.683,2.488,22.768,8.79,32.205,18.001l16.401,13.509Z" fill="url(#g)"/><path d="M782.997,184.711l-67.815-142.428h-83.625l-110.297,231.612h86.503l16.954-40.358h95.867l16.934,40.358h87.942l-42.463-89.185ZM648.137,177.291l24.504-58.238,24.504,58.238h-49.008Z" fill="url(#h)"/><path d="M795.276,41.042v142.739l42.47,89.182h-.04c.025.026.053.049.078.075h42.411V41.042h-84.919Z" fill="url(#i)"/><path d="M1019.169,38.91c-70.915,0-128.402,52.775-128.402,117.877s57.488,117.877,128.402,117.877,128.402-52.775,128.402-117.877-57.488-117.877-128.402-117.877ZM979.438,209.23v-100.02c0-8.382,10.088-13.454,17.781-8.94l86.078,50.505c7.074,4.151,7.088,13.632.025,17.8l-84.963,50.139c-8.173,4.823-18.922-.564-18.922-9.484Z" fill="url(#j)"/><path d="M682.389,315.065l-42.9,89.345h-18.004l-43.041-89.345h19.833l32.772,68.924,33.055-68.924h18.285Z" fill="url(#k)"/><path d="M874.992,346.846c0,19.657-16.034,31.781-41.916,31.781h-22.224v25.783h-18.284v-89.345h40.508c25.882,0,41.916,11.998,41.916,31.781ZM856.566,346.846c0-11.231-8.298-17.741-24.333-17.741h-21.381v35.482h21.381c16.034,0,24.333-6.508,24.333-17.741Z" fill="url(#l)"/><path d="M1072.476,315.065v89.345h-15.05l-54.293-60.5v60.5h-18.145v-89.345h15.05l54.295,60.5v-60.5h18.143Z" fill="url(#m)"/></svg>