<?xml version="1.0" encoding="UTF-8"?>
<svg id="Layer_2" data-name="Layer 2" xmlns="http://www.w3.org/2000/svg" xmlns:xlink="http://www.w3.org/1999/xlink" viewBox="0 0 1056.86 294.34">
  <defs>
    <style>
      .cls-1 {
        fill: url(#linear-gradient-8);
      }

      .cls-2 {
        fill: url(#linear-gradient-7);
      }

      .cls-3 {
        fill: url(#linear-gradient-5);
      }

      .cls-4 {
        fill: url(#linear-gradient-6);
      }

      .cls-5 {
        fill: url(#linear-gradient-9);
      }

      .cls-6 {
        fill: url(#linear-gradient-4);
      }

      .cls-7 {
        fill: url(#linear-gradient-3);
      }

      .cls-8 {
        fill: url(#linear-gradient-2);
      }

      .cls-9 {
        fill: url(#linear-gradient);
      }

      .cls-10 {
        fill: url(#linear-gradient-10);
      }
    </style>
    <linearGradient id="linear-gradient" x1="74.56" y1="247.61" x2="145.11" y2="271.12" gradientUnits="userSpaceOnUse">
      <stop offset="0" stop-color="#201160"/>
      <stop offset=".25" stop-color="#2604a3"/>
      <stop offset=".6" stop-color="#7123f2"/>
      <stop offset=".85" stop-color="#832af8"/>
      <stop offset="1" stop-color="#7d1fea"/>
    </linearGradient>
    <linearGradient id="linear-gradient-2" x1="39.71" y1="295.27" x2="210.51" y2="62.92" gradientUnits="userSpaceOnUse">
      <stop offset=".04" stop-color="#430dd3"/>
      <stop offset=".46" stop-color="#8622f0"/>
      <stop offset=".77" stop-color="#b02cf2"/>
      <stop offset="1" stop-color="#ef64fb"/>
    </linearGradient>
    <linearGradient id="linear-gradient-3" x1="121.48" y1="219.61" x2="248.63" y2="185.05" gradientUnits="userSpaceOnUse">
      <stop offset="0" stop-color="#9929f5"/>
      <stop offset=".38" stop-color="#7021ef"/>
      <stop offset=".55" stop-color="#4f16bf"/>
      <stop offset=".78" stop-color="#200679"/>
      <stop offset=".95" stop-color="#1b1355"/>
    </linearGradient>
    <linearGradient id="linear-gradient-4" x1="43.45" y1="288.57" x2="104.7" y2="76.46" gradientUnits="userSpaceOnUse">
      <stop offset="0" stop-color="#400dd2"/>
      <stop offset=".59" stop-color="#6813e6"/>
      <stop offset=".67" stop-color="#6512e2"/>
      <stop offset=".73" stop-color="#5f11d6"/>
      <stop offset=".8" stop-color="#530ec3"/>
      <stop offset=".86" stop-color="#440ba9"/>
      <stop offset=".92" stop-color="#300787"/>
      <stop offset=".98" stop-color="#1a0362"/>
    </linearGradient>
    <linearGradient id="linear-gradient-5" x1="766.51" y1="202.67" x2="766.51" y2="91.67" gradientUnits="userSpaceOnUse">
      <stop offset=".08" stop-color="#808285"/>
      <stop offset=".53" stop-color="#bcbec0"/>
      <stop offset="1" stop-color="#e6e7e8"/>
    </linearGradient>
    <linearGradient id="linear-gradient-6" x1="885.99" x2="885.99" xlink:href="#linear-gradient-5"/>
    <linearGradient id="linear-gradient-7" x1="1004.05" x2="1004.05" xlink:href="#linear-gradient-5"/>
    <linearGradient id="linear-gradient-8" x1="413.54" y1="201.9" x2="413.54" y2="91.81" xlink:href="#linear-gradient-5"/>
    <linearGradient id="linear-gradient-9" x1="504.45" y1="201.9" x2="504.45" y2="91.81" xlink:href="#linear-gradient-5"/>
    <linearGradient id="linear-gradient-10" x1="591.68" y1="202.53" x2="591.68" y2="91.81" xlink:href="#linear-gradient-5"/>
  </defs>
  <g id="Layer_1-2" data-name="Layer 1">
    <g>
      <path class="cls-9" d="M139.75,266.91c-.15.67-.53,1.26-1.08,1.77-.52.47-1.21.88-2.01,1.19l-.22.09-45.55,17.78-.51.2c-4.14,1.63-8.64,3.04-13.43,4.11-12.07,2.7-23.5,2.84-32.11.87,2.74.43,5.55.68,8.41.68,1.75,0,3.48-.09,5.19-.26l12.33-41.07,16.69-55.58s.08.07.12.1c-1.25,4.76.71,11.03,5.22,16.57l.04.04c.76.94,1.6,1.87,2.52,2.75h.01s10.02,10.92,10.02,10.92l32.62,35.52.28.3c1.22,1.31,1.77,2.71,1.46,4.01Z"/>
      <path class="cls-8" d="M293.39,171.12c0,12.57-4.24,24.15-11.37,33.34-5.04,6.51-11.54,11.82-18.99,15.44l-7.1,2.84h-.03s-96.63,38.66-96.63,38.66c.07-.03.13-.06.2-.1l57.93-24.69.1-.04c1.04-.39,2.08-.82,3.14-1.27.82-.35,1.61-.72,2.4-1.09,5.71-2.69,10.62-5.85,14.23-9.04h.01c1.51-1.33,2.79-2.65,3.82-3.95,0,0,.01,0,.01-.01,3.53-3.15,6.35-6.92,8.3-11.3,4.86-10.9,3.28-23.34-3.19-34.56l-34.39-27.96-4.02-3.26-9.26-7.54-24.74-20.1-24.51-19.93-3.73-3.03-8.59-6.99-10.37-8.43c-5.97-5.75-12.98-9.68-20.37-11.24-4.37-.92-8.88-1-13.38-.11-11.86,2.32-21.23,10.88-26.52,22.62-1.79,3.96-3.12,8.29-3.91,12.86l-22.32,83.47-24.55,91.81c-9.62-9.92-15.56-23.59-15.56-38.7,0-6.12.98-12,2.78-17.5.67-2.07,1.47-4.08,2.37-6.02L55.48,43.8v-.02c.44-2.21,1.01-4.36,1.7-6.47C64.28,15.63,84.25,0,107.77,0c10.92,0,21.08,3.37,29.54,9.16,3.63,2.47,6.94,5.4,9.87,8.7l125.69,110.68.02.02c12.48,9.91,20.5,25.3,20.5,42.57Z"/>
      <path class="cls-7" d="M249.41,209.98c-1.95,4.39-4.66,8.22-8.18,11.37.11.05,0,0,0,0-1.03,1.3-2.43,2.59-3.95,3.92h-.01c-3.62,3.19-8.52,6.36-14.23,9.06l-5.54,2.36-.1.04-57.93,24.74-.9.38.59-.23c-1.75.79-3.41.99-4.9.49-.73-.24-1.38-.65-1.96-1.2l-.9-1.02-.02-.03-31.85-36.38-2.72-3.11-.14-.16c-1.87-2.1-2.72-4.21-2.26-6.14.38-1.58,1.57-2.88,3.43-3.88l1.01-.5,4.13-2.02,24.47-11.99,39.04-19.11h0c.09-.09.35-.18.33-.2,8.14-4.35,12.51-7.31,16.4-13.79,1.69-2.79,2.97-5.9,3.77-9.26.58-2.47.45-7.05.46-9.47,1.15.67,4.08,3.35,4.37,3.49l34.4,28.02c10.2,12.63,8.05,23.7,3.19,34.63Z"/>
      <path class="cls-6" d="M136.98,86.49c-.57-.12-1.14-.2-1.74-.24-.57-.04-1.15-.05-1.72-.02-8.45.36-15.99,8.07-19.11,18.91l-.13.45-1.08,3.71h-.01l-16.86,57.57-8.74,29.82-16.69,55.58-12.06,41.99c-1.71.17-3.8,0-5.54-.15-4.37-.37-5.89-.83-8.33-1.19-.05-.01-.1-.02-.15-.03-11.35-1.88-21.5-7.43-29.26-15.43l24.55-91.81,22.32-83.47c.8-4.57,2.13-8.9,3.91-12.86,5.28-11.73,14.65-20.3,26.52-22.62,4.5-.89,9-.81,13.38.11,7.39,1.55,14.4,5.49,20.37,11.24l10.37,8.43Z"/>
    </g>
    <g>
      <path class="cls-3" d="M829.46,91.67l-47.57,110.99h-30.92l-47.41-110.99h33.93l30.13,72.31,30.76-72.31h31.08Z"/>
      <path class="cls-4" d="M936.02,132.74c0,25.21-19.03,40.91-49.31,40.91h-19.34v29.02h-31.4v-110.99h50.74c30.29,0,49.31,15.7,49.31,41.07ZM904.31,132.74c0-10.31-6.5-16.33-19.5-16.33h-17.44v32.51h17.44c13,0,19.5-6.03,19.5-16.17Z"/>
      <path class="cls-2" d="M1056.86,91.67v110.99h-25.85l-49-59.14v59.14h-30.76v-110.99h25.85l49,59.14v-59.14h30.76Z"/>
    </g>
    <g>
      <g>
        <path class="cls-1" d="M434.15,182.71h-41.83l-7.39,19.19h-37.75l48.13-110.09h36.49l48.13,110.09h-38.37l-7.39-19.19ZM423.92,155.98l-10.69-27.68-10.69,27.68h21.39Z"/>
        <path class="cls-5" d="M485.89,91.81h37.12v110.09h-37.12v-110.09Z"/>
      </g>
      <path class="cls-10" d="M591.68,91.81c-30.58,0-55.36,24.79-55.36,55.36s24.79,55.36,55.36,55.36,55.36-24.79,55.36-55.36-24.79-55.36-55.36-55.36ZM574.55,171.8v-46.98c0-3.94,4.35-6.32,7.67-4.2l37.11,23.72c3.05,1.95,3.06,6.4.01,8.36l-36.63,23.55c-3.52,2.27-8.16-.26-8.16-4.45Z"/>
    </g>
  </g>
</svg>