<?xml version="1.0" encoding="UTF-8"?><svg id="a" xmlns="http://www.w3.org/2000/svg" xmlns:xlink="http://www.w3.org/1999/xlink" viewBox="0 0 52 52"><defs><linearGradient id="b" x1="14.289" y1="42.243" x2="25.74" y2="46.06" gradientUnits="userSpaceOnUse"><stop offset="0" stop-color="#201160"/><stop offset=".245" stop-color="#2604a3"/><stop offset=".602" stop-color="#7123f2"/><stop offset=".854" stop-color="#832af8"/><stop offset="1" stop-color="#7d1fea"/></linearGradient><linearGradient id="c" x1="8.682" y1="49.993" x2="36.329" y2="12.382" gradientUnits="userSpaceOnUse"><stop offset=".041" stop-color="#430dd3"/><stop offset=".464" stop-color="#8622f0"/><stop offset=".774" stop-color="#b02cf2"/><stop offset="1" stop-color="#ef64fb"/></linearGradient><linearGradient id="d" x1="21.911" y1="37.723" x2="42.537" y2="32.117" gradientUnits="userSpaceOnUse"><stop offset="0" stop-color="#9929f5"/><stop offset=".376" stop-color="#7021ef"/><stop offset=".548" stop-color="#4f16bf"/><stop offset=".781" stop-color="#200679"/><stop offset=".95" stop-color="#1b1355"/></linearGradient><linearGradient id="e" x1="9.275" y1="48.877" x2="19.183" y2="14.563" gradientUnits="userSpaceOnUse"><stop offset="0" stop-color="#400dd2"/><stop offset=".594" stop-color="#6813e6"/><stop offset=".665" stop-color="#6512e2"/><stop offset=".732" stop-color="#5f11d6"/><stop offset=".797" stop-color="#530ec3"/><stop offset=".861" stop-color="#440ba9"/><stop offset=".923" stop-color="#300787"/><stop offset=".979" stop-color="#1a0362"/></linearGradient></defs><path d="M24.873,45.366c-.025.108-.086.204-.176.286-.085.077-.196.142-.327.193l-.036.015-7.392,2.876-.083.033c-.672.264-1.403.491-2.179.664-1.958.437-3.813.46-5.21.14.444.07.9.109,1.365.109.284,0,.565-.015.842-.042l2.001-6.642,2.708-8.989c.007.005.013.011.02.016-.202.77.114,1.783.847,2.681l.007.007c.123.152.26.302.41.445l.002.002,1.627,1.765,5.292,5.744.045.049c.197.212.287.439.237.649Z" fill="url(#b)"/><path d="M49.803,29.874c0,2.033-.688,3.906-1.845,5.392-.817,1.052-1.872,1.912-3.081,2.498l-1.152.46-.005.002-15.68,6.252c.012-.005.022-.01.033-.016l9.399-3.994.017-.007c.169-.064.338-.132.509-.206.133-.057.262-.116.39-.176.927-.436,1.723-.946,2.31-1.462h.002c.245-.215.453-.429.62-.64,0,0,.002,0,.002-.002.572-.509,1.03-1.119,1.346-1.827.789-1.764.532-3.775-.517-5.589l-5.581-4.522-.652-.527-1.502-1.219-4.014-3.252-3.978-3.224-.605-.489-1.394-1.131-1.683-1.364c-.968-.93-2.106-1.566-3.304-1.817-.71-.148-1.441-.162-2.17-.018-1.925.375-3.445,1.76-4.303,3.658-.29.641-.506,1.341-.635,2.08l-3.621,13.5-3.984,14.848c-1.56-1.604-2.525-3.816-2.525-6.258,0-.99.159-1.941.451-2.831.109-.334.239-.659.385-.974L11.199,9.281l.002-.003c.07-.357.162-.705.274-1.046,1.154-3.508,4.394-6.035,8.211-6.035,1.772,0,3.421.545,4.793,1.481.589.4,1.126.873,1.602,1.406l20.394,17.9.003.003c2.024,1.602,3.326,4.092,3.326,6.885Z" fill="url(#c)"/><path d="M42.667,36.159c-.317.709-.756,1.329-1.328,1.839.018.008,0,0,0,0-.167.211-.395.419-.64.635h-.002c-.587.517-1.383,1.028-2.31,1.465l-.899.382-.017.007-9.4,4.002-.146.062.096-.038c-.284.128-.554.16-.796.078-.118-.039-.224-.105-.318-.195l-.146-.165-.003-.005-5.168-5.885-.441-.503-.023-.026c-.303-.34-.441-.682-.366-.994.061-.255.255-.466.557-.628l.164-.08.67-.327,3.971-1.939,6.334-3.091v-.002c.014-.013.057-.028.054-.031,1.321-.703,2.03-1.182,2.662-2.23.274-.451.483-.955.612-1.497.095-.399.074-1.14.075-1.531.186.108.661.542.709.565l5.581,4.531c1.654,2.043,1.307,3.833.517,5.6Z" fill="url(#d)"/><path d="M24.423,16.186c-.093-.02-.186-.033-.282-.039-.093-.007-.187-.008-.279-.003-1.371.059-2.595,1.305-3.101,3.059l-.022.073-.176.6h-.002l-2.736,9.311-1.418,4.823-2.708,8.989-1.957,6.792c-.277.028-.617,0-.899-.024-.709-.059-.956-.135-1.351-.193-.008-.002-.017-.003-.025-.005-1.842-.303-3.489-1.202-4.747-2.496l3.984-14.848,3.621-13.5c.129-.739.345-1.439.635-2.08.857-1.897,2.378-3.283,4.303-3.658.73-.144,1.461-.131,2.17.018,1.199.251,2.336.888,3.304,1.817l1.683,1.364Z" fill="url(#e)"/></svg>